{
    "asset" : {
        "generator" : "Khronos glTF Blender I/O v1.5.17",
        "version" : "2.0"
    },
    "scene" : 0,
    "scenes" : [
        {
            "name" : "Scene",
            "nodes" : [
                0,
                1
            ]
        }
    ],
    "nodes" : [
        {
            "mesh" : 0,
            "name" : "Pizza 3d 0",
            "scale" : [
                0.009999999776482582,
                0.009999999776482582,
                0.009999999776482582
            ]
        },
        {
            "mesh" : 1,
            "name" : "Pizza 3d m",
            "scale" : [
                0.009999999776482582,
                0.009999999776482582,
                0.009999999776482582
            ]
        }
    ],
    "materials" : [
        {
            "doubleSided" : true,
            "name" : "01 - Default.001",
            "pbrMetallicRoughness" : {
                "baseColorTexture" : {
                    "index" : 0
                },
                "metallicFactor" : 0,
                "roughnessFactor" : 0.5
            }
        }
    ],
    "meshes" : [
        {
            "name" : "Pizza 3d 0.001",
            "primitives" : [
                {
                    "attributes" : {
                        "POSITION" : 0,
                        "NORMAL" : 1,
                        "TEXCOORD_0" : 2
                    },
                    "indices" : 3,
                    "material" : 0
                }
            ]
        },
        {
            "name" : "Pizza 3d m.001",
            "primitives" : [
                {
                    "attributes" : {
                        "POSITION" : 4,
                        "NORMAL" : 5,
                        "TEXCOORD_0" : 6
                    },
                    "indices" : 7,
                    "material" : 0
                }
            ]
        }
    ],
    "textures" : [
        {
            "sampler" : 0,
            "source" : 0
        }
    ],
    "images" : [
        {
            "bufferView" : 4,
            "mimeType" : "image/png",
            "name" : "Texture_pizza"
        }
    ],
    "accessors" : [
        {
            "bufferView" : 0,
            "componentType" : 5126,
            "count" : 10191,
            "max" : [
                79.91181945800781,
                10.89584732055664,
                -15.427513122558594
            ],
            "min" : [
                -80.00774383544922,
                -10.809061050415039,
                -155.8241424560547
            ],
            "type" : "VEC3"
        },
        {
            "bufferView" : 1,
            "componentType" : 5126,
            "count" : 10191,
            "type" : "VEC3"
        },
        {
            "bufferView" : 2,
            "componentType" : 5126,
            "count" : 10191,
            "type" : "VEC2"
        },
        {
            "bufferView" : 3,
            "componentType" : 5123,
            "count" : 10272,
            "type" : "SCALAR"
        },
        {
            "bufferView" : 5,
            "componentType" : 5126,
            "count" : 9661,
            "max" : [
                79.95977783203125,
                83.63249206542969,
                152.75962829589844
            ],
            "min" : [
                -79.95977783203125,
                -9.153858184814453,
                12.36297607421875
            ],
            "type" : "VEC3"
        },
        {
            "bufferView" : 6,
            "componentType" : 5126,
            "count" : 9661,
            "type" : "VEC3"
        },
        {
            "bufferView" : 7,
            "componentType" : 5126,
            "count" : 9661,
            "type" : "VEC2"
        },
        {
            "bufferView" : 8,
            "componentType" : 5123,
            "count" : 10272,
            "type" : "SCALAR"
        }
    ],
    "bufferViews" : [
        {
            "buffer" : 0,
            "byteLength" : 122292,
            "byteOffset" : 0
        },
        {
            "buffer" : 0,
            "byteLength" : 122292,
            "byteOffset" : 122292
        },
        {
            "buffer" : 0,
            "byteLength" : 81528,
            "byteOffset" : 244584
        },
        {
            "buffer" : 0,
            "byteLength" : 20544,
            "byteOffset" : 326112
        },
        {
            "buffer" : 0,
            "byteLength" : 1010864,
            "byteOffset" : 346656
        },
        {
            "buffer" : 0,
            "byteLength" : 115932,
            "byteOffset" : 1357520
        },
        {
            "buffer" : 0,
            "byteLength" : 115932,
            "byteOffset" : 1473452
        },
        {
            "buffer" : 0,
            "byteLength" : 77288,
            "byteOffset" : 1589384
        },
        {
            "buffer" : 0,
            "byteLength" : 20544,
            "byteOffset" : 1666672
        }
    ],
    "samplers" : [
        {
            "magFilter" : 9729,
            "minFilter" : 9987
        }
    ],
    "buffers" : [
        {
            "byteLength" : 1687216,
            "uri" : "data:application/octet-stream;base64,"
        }
    ]
}
